<svg xmlns:dc="http://purl.org/dc/elements/1.1/" xmlns:cc="http://creativecommons.org/ns#" xmlns:rdf="http://www.w3.org/1999/02/22-rdf-syntax-ns#" xmlns:svg="http://www.w3.org/2000/svg" xmlns="http://www.w3.org/2000/svg" xmlns:sodipodi="http://sodipodi.sourceforge.net/DTD/sodipodi-0.dtd" xmlns:inkscape="http://www.inkscape.org/namespaces/inkscape" version="1.1" x="0px" y="0px" viewBox="0 0 100 125">
    <g transform="translate(0,-952.36218)"><path style="font-size:medium;font-style:normal;font-variant:normal;font-weight:normal;font-stretch:normal;text-indent:0;text-align:start;text-decoration:none;line-height:normal;letter-spacing:normal;word-spacing:normal;text-transform:none;direction:ltr;block-progression:tb;writing-mode:lr-tb;text-anchor:start;baseline-shift:baseline;opacity:1;color:#000000;fill:#000000;fill-opacity:1;stroke:none;stroke-width:2.14285706999999980;marker:none;visibility:visible;display:inline;overflow:visible;enable-background:accumulate;font-family:Sans;-inkscape-font-specification:Sans" 
    d="M 50 7 C 26.263598 7 7 26.26359 7 50 C 7 73.7364 26.263598 93 50 93 C 73.736403 93 93 73.7364 93 50 C 93 26.26359 73.736403 7 50 7 z M 50 9 C 72.655519 9 91 27.34447 91 50 C 91 72.6555 72.655519 91 50 91 C 27.344482 91 9 72.6555 9 50 C 9 27.34447 27.344482 9 50 9 z M 29.8125 34 A 1.0043849 1.0043849 0 0 0 30 36 L 70 36 A 1.0001 1.0001 0 1 0 70 34 L 30 34 A 1.0001 1.0001 0 0 0 29.8125 34 z M 29.8125 49 A 1.0043849 1.0043849 0 0 0 30 51 L 70 51 A 1.0001 1.0001 0 1 0 70 49 L 30 49 A 1.0001 1.0001 0 0 0 29.8125 49 z M 29.8125 64 A 1.0043849 1.0043849 0 0 0 30 66 L 70 66 A 1.0001 1.0001 0 1 0 70 64 L 30 64 A 1.0001 1.0001 0 0 0 29.8125 64 z " 
    transform="translate(0,952.36218)"/></g>
    <text x="0" y="115" fill="#000000" font-size="5px" font-weight="bold" font-family="'Helvetica Neue', Helvetica, Arial-Unicode, Arial, Sans-serif">Created by cathy moser</text><text x="0" y="120" fill="#000000" font-size="5px" font-weight="bold" font-family="'Helvetica Neue', Helvetica, Arial-Unicode, Arial, Sans-serif">from the Noun Project</text>
</svg>